<svg id="svg2" xmlns:rdf="http://www.w3.org/1999/02/22-rdf-syntax-ns#" xmlns="http://www.w3.org/2000/svg" height="320" width="1543.4" version="1.1" xmlns:cc="http://creativecommons.org/ns#" xmlns:dc="http://purl.org/dc/elements/1.1/" viewBox="0 0 1543.4268 320.00026">
 <g id="layer1" transform="translate(0 -732.36)">
  <g stroke-width="28">
   <g id="g5175-6-35" transform="matrix(.57657 .52719 -.57729 .52786 584.63 346.6)"></g>
   <g id="g5204-0-5-0" transform="matrix(.66287 -.69913 .66371 .70001 -543.46 380.47)">
    <g id="g5175-6-35-9" transform="translate(2.5254 3.0305)"></g>
    <g id="g5175-9-8-2-6" transform="translate(41.25 -30.543)" stroke-width="28"></g>
   </g>
  </g>
  <g id="text4279" transform="translate(0 732.36)" fill="#305680">
   <g id="g9352" fill="#fff">
    <g id="g8299">
     <path id="path4345" d="m477.92 93.229h-48.56v134.68h-19.818v-134.68h-48.456v-16.394h116.83v16.394z"/>
     <path id="path4347" d="m516.72 129.23q12.762-15.668 33.203-15.668 35.59 0 35.901 40.155v74.188h-19.196v-74.292q-0.10376-12.14-5.603-17.95-5.3955-5.8105-16.913-5.8105-9.3384 0-16.394 4.9805-7.0557 4.9805-10.999 13.074v79.999h-19.196v-159.38h19.196v60.699z"/>
     <path id="path4349" d="m635.43 227.91h-19.196v-112.27h19.196v112.27zm-20.76-142.05q0-4.6692 2.8015-7.8857 2.9053-3.2166 8.5083-3.2166t8.5083 3.2166 2.9053 7.8857q0 4.6692-2.9053 7.782t-8.5083 3.1128-8.5083-3.1128q-2.8015-3.1128-2.8015-7.782z"/>
     <path id="path4351" d="m684.19 115.64 0.62256 14.111q12.866-16.187 33.618-16.187 35.59 0 35.901 40.155v74.188h-19.196v-74.292q-0.10376-12.14-5.603-17.95-5.3955-5.8105-16.913-5.8105-9.3384 0-16.394 4.9805-7.0557 4.9805-10.999 13.074v79.999h-19.196v-112.27h18.158z"/>
     <path id="path4353" d="m778.92 170.84q0-26.251 12.14-41.711 12.14-15.564 32.166-15.564 20.544 0 32.062 14.526l0.93384-12.451h17.535v109.57q0 21.79-12.97 34.344-12.866 12.555-34.656 12.555-12.14 0-23.761-5.188t-17.743-14.215l9.9609-11.517q12.347 15.253 30.194 15.253 14.008 0 21.79-7.8857 7.8857-7.8858 7.8857-22.205v-9.6497q-11.517 13.281-31.439 13.281-19.714 0-31.958-15.875-12.14-15.875-12.14-43.268zm19.299 2.179q0 18.988 7.782 29.883 7.782 10.791 21.79 10.791 18.158 0 26.666-16.498v-51.257q-8.8196-16.083-26.459-16.083-14.008 0-21.893 10.895-7.8858 10.895-7.8858 32.269z"/>
     <path id="path4355" d="m967.98 198.13q0-7.782-5.9143-12.036-5.8106-4.3579-20.441-7.4707-14.526-3.1128-23.138-7.4707-8.5083-4.3579-12.659-10.376-4.0466-6.0181-4.0466-14.319 0-13.8 11.621-23.346 11.725-9.5459 29.883-9.5459 19.092 0 30.92 9.8572 11.932 9.8572 11.932 25.214h-19.299q0-7.8858-6.7444-13.593-6.6406-5.7068-16.809-5.7068-10.48 0-16.394 4.5654-5.9143 4.5654-5.9143 11.932 0 6.9519 5.4993 10.48 5.4993 3.5278 19.818 6.7444 14.423 3.2166 23.346 7.6782 8.9233 4.4617 13.177 10.791 4.3579 6.2256 4.3579 15.253 0 15.045-12.036 24.176-12.036 9.0271-31.232 9.0271-13.489 0-23.865-4.773t-16.29-13.281q-5.8105-8.6121-5.8105-18.573h19.196q0.5188 9.6497 7.6782 15.356 7.2632 5.603 19.092 5.603 10.895 0 17.432-4.3579 6.6406-4.4617 6.6406-11.829z"/>
    </g>
   </g>
  </g>
 </g>
</svg>
